<svg width="92" height="92" fill="none" xmlns="http://www.w3.org/2000/svg"><g opacity=".51"><path d="M61.803 1.797H11.99a4.82 4.82 0 00-4.803 4.825V85.34a4.82 4.82 0 004.803 4.825h49.812a1.078 1.078 0 000-2.156H11.99a2.661 2.661 0 01-2.647-2.67V6.623a2.661 2.661 0 012.647-2.669h49.812a2.661 2.661 0 012.647 2.67v42.783a1.078 1.078 0 002.156 0V6.622a4.82 4.82 0 00-4.803-4.825z" fill="#fff" fill-opacity=".48"/><path d="M61.803 1.547h0a5.07 5.07 0 015.053 5.076m-5.053-5.076l4.803 5.075m-4.803-5.075H11.99a5.07 5.07 0 00-5.053 5.076m54.866-5.076L6.938 6.623m59.918 0h-.25m.25 0v0h-.25m.25 0v42.783a1.328 1.328 0 01-2.656 0V6.622v0a2.411 2.411 0 00-2.398-2.419m4.804 2.42v42.783a1.078 1.078 0 01-2.156 0V6.622a2.661 2.661 0 00-2.647-2.669m0 .25h0v-.25m0 .25H11.99m49.811 0s0 0 0 0v-.25m0 0H11.992M9.344 85.34a2.661 2.661 0 002.647 2.67m-2.647-2.67L61.803 1.797H11.99a4.82 4.82 0 00-4.803 4.825M9.344 85.34V6.622a2.661 2.661 0 012.647-2.669M9.344 85.34L11.99 4.203m0 83.805h49.812a1.078 1.078 0 110 2.156H11.99a4.82 4.82 0 01-4.803-4.825m4.803 2.67v-.25h.001l-.001.25zm-4.803-2.67V6.622m0 78.717h-.25v0V6.623m.25 78.716l-.25-78.716m.25 0h-.25v0m.25 0h-.25s0 0 0 0m5.053-2.42h0v-.25m0 .25h.001l-.001-.25" stroke="#fff" stroke-opacity=".48" stroke-width=".5"/><path d="M60.024 29.37a1.439 1.439 0 001.437-1.437V10.13a1.439 1.439 0 00-1.437-1.438h-46.48a1.44 1.44 0 00-1.437 1.438v17.802a1.439 1.439 0 001.438 1.437h46.479zm-45.76-18.52h45.041v16.364H14.264V10.85z" fill="#fff" fill-opacity=".48"/><path d="M60.024 29.62h0a1.69 1.69 0 001.687-1.687v0V10.13v0a1.69 1.69 0 00-1.687-1.688h0-46.48 0a1.689 1.689 0 00-1.687 1.688v17.802h0a1.689 1.689 0 001.688 1.687h46.479zM14.514 11.1h44.541v15.864H14.514V11.1z" stroke="#fff" stroke-opacity=".48" stroke-width=".5"/><path d="M60.57 50.561a1.078 1.078 0 001.078-1.078V34.927a1.453 1.453 0 00-1.45-1.453H12.851a1.454 1.454 0 00-1.45 1.453v48.551a1.454 1.454 0 001.45 1.453h30.327c.236.087.496.087.732 0h5.66a1.078 1.078 0 000-2.156h-4.947v-5.74a1.078 1.078 0 00-2.157 0v5.74H28.8v-9.903h14.38a1.078 1.078 0 100-2.156H28.8V60.233h14.37v2.12a1.078 1.078 0 102.156 0v-2.12h.466a1.078 1.078 0 000-2.156h-.466V47.968h14.166v1.515a1.078 1.078 0 001.078 1.078zm-17.4-14.93v10.18H28.8v-10.18h14.37zm-16.526 0v10.18H13.557v-10.18h13.087zM13.557 47.967h13.087v10.109H13.557V47.968zm13.087 34.807H13.557v-9.903h13.087v9.903zm0-12.059H13.557V60.233h13.087v10.483zm16.526-12.64H28.8V47.969h14.37v10.109zm2.156-12.264V35.63h14.166v10.182H45.326z" fill="#fff" fill-opacity=".48"/><path d="M61.898 34.927v0a1.703 1.703 0 00-1.7-1.703h0-47.346 0a1.704 1.704 0 00-1.7 1.703v48.551h0a1.704 1.704 0 001.7 1.703h30.285c.265.087.551.087.816 0h5.618a1.328 1.328 0 000-2.656h-4.697v-5.49a1.328 1.328 0 00-2.657 0v5.49H29.05v-9.403h14.13a1.328 1.328 0 100-2.656H29.05v-9.983h13.87v1.87a1.329 1.329 0 002.656 0v-1.87h.216a1.328 1.328 0 000-2.656h-.216v-9.609h13.666v1.265a1.328 1.328 0 102.656 0V34.927zm-18.979.953v9.682H29.05V35.88h13.87zm-16.525 0v9.682H13.807V35.88h12.587zM13.807 48.218h12.587v9.609H13.807v-9.609zm12.587 34.307H13.807v-9.403h12.587v9.403zm0-12.059H13.807v-9.983h12.587v9.983zm16.526-12.64H29.05v-9.608h13.87v9.609zm2.656-12.264V35.88h13.666v9.682H45.576z" stroke="#fff" stroke-opacity=".48" stroke-width=".5"/><path d="M63.371 48.216c-11.823 0-21.44 9.418-21.44 20.994s9.618 20.993 21.44 20.993c11.823 0 21.441-9.418 21.441-20.993 0-11.576-9.618-20.994-21.44-20.994zm0 39.83c-10.633 0-19.284-8.45-19.284-18.836 0-10.387 8.651-18.837 19.284-18.837 10.634 0 19.285 8.45 19.285 18.837s-8.65 18.837-19.285 18.837z" fill="#fff" fill-opacity=".48"/><path d="M63.371 47.966c-11.956 0-21.69 9.525-21.69 21.244s9.735 21.243 21.69 21.243c11.956 0 21.691-9.524 21.691-21.243 0-11.72-9.735-21.244-21.69-21.244zm0 39.83c-10.5 0-19.034-8.343-19.034-18.586 0-10.243 8.534-18.587 19.034-18.587 10.501 0 19.035 8.344 19.035 18.587s-8.533 18.587-19.035 18.587z" stroke="#fff" stroke-opacity=".48" stroke-width=".5"/><path d="M64.761 58.452v-1.534a1.078 1.078 0 00-2.156 0v1.537a5.143 5.143 0 00-2.9 1.394c-1.613 1.572-1.709 3.776-1.7 4.414.037 2.477 1.919 4.568 4.578 5.083l.24.048.6.116c.092.018.308.082.423.117a1.061 1.061 0 01.158.06l.37.14c.037.014.074.03.109.048.178.09.222.116.352.192l.193.111.043.027.041.026c.39.235 2.341 1.504 2.42 3.354.046 1.107-.24 1.953-.872 2.586-.873.872-2.35 1.217-3.427 1.172-2.271-.096-3.612-1.938-3.725-2.942a1.078 1.078 0 10-2.143.24c.313 2.787 3.082 4.481 5.24 4.803v1.31a1.078 1.078 0 102.156 0V79.38c1.189-.213 2.463-.724 3.423-1.685 1.054-1.053 1.573-2.506 1.502-4.2-.121-2.872-2.668-4.631-3.464-5.113l-.104-.065a9.474 9.474 0 01-.2-.115 7.355 7.355 0 00-.46-.25 3.294 3.294 0 00-.316-.14l-.352-.133a3.259 3.259 0 00-.326-.118 6.944 6.944 0 00-.639-.169l-.587-.114-.245-.048c-1.931-.374-2.814-1.776-2.832-2.998-.012-.866.257-2.066 1.048-2.84.631-.614 1.542-.902 2.708-.854a4.135 4.135 0 013.965 2.95 1.078 1.078 0 002.095-.51 6.25 6.25 0 00-5.216-4.526z" fill="#fff" fill-opacity=".48"/><path d="M64.835 70.067l-.018-.011c-.116-.067-.164-.095-.334-.18a1.096 1.096 0 00-.109-.049l.46.24zm0 0a19.258 19.258 0 01.193.111l-.193-.111zM59.53 59.669h0a5.394 5.394 0 012.824-1.43v-1.321a1.328 1.328 0 012.656 0v1.319a6.502 6.502 0 015.207 4.675l.003.01h0a1.328 1.328 0 01-2.582.627 3.873 3.873 0 00-.745-1.377c-.548-.658-1.468-1.323-2.987-1.385h0c-1.12-.045-1.956.233-2.523.785-.725.707-.984 1.828-.973 2.656.017 1.103.813 2.404 2.63 2.757h0l.245.048h0l.586.114c.201.038.436.107.664.175h0c.118.035.234.077.347.125l.348.132h0c.116.044.23.095.34.15m-6.04-8.06l6.387 8.533.125-.216s0 0 0 0a7.621 7.621 0 00-.472-.257m-6.04-8.06h0c-1.691 1.648-1.785 3.944-1.775 4.597l1.775-4.597zm6.04 8.06l-.113.223.113-.223s0 0 0 0zm.783.44h-.003l-.129.213.134-.21-.002-.002zm-8.598-3.903c.038 2.611 2.02 4.79 4.779 5.326l.24.047h0l.115.022.485.095c.078.015.277.074.399.11.03.009.06.02.088.032l.047.02h0l.006.002.37.141h0a.88.88 0 01.085.037h0c.164.083.207.108.32.174l.02.01v.002c.02.01.043.024.069.039l.12.07.037.023.047.029c.186.112.75.475 1.274 1.029.527.557.99 1.282 1.024 2.121.045 1.055-.226 1.827-.798 2.399-.806.806-2.205 1.142-3.24 1.099a3.859 3.859 0 01-2.51-1.062c-.603-.57-.928-1.23-.976-1.657a1.329 1.329 0 00-1.965-1.022l.12.218-.12-.218a1.329 1.329 0 00-.675 1.318c.165 1.473.98 2.648 2.019 3.49a7.396 7.396 0 003.219 1.495v1.099a1.328 1.328 0 102.656 0v-1.167l-7.255-15.32z" stroke="#fff" stroke-opacity=".48" stroke-width=".5"/></g></svg>