<svg width="92" height="92" fill="none" xmlns="http://www.w3.org/2000/svg"><g opacity=".51" fill="#fff" fill-opacity=".48"><path d="M15.541 32.523H4.976v5.391H15.54v-5.39zm0 21.563H4.976v5.39H15.54v-5.39zm0-10.781H0v5.39h15.541v-5.39zm40.925-32.839c-19.594 0-35.534 15.94-35.534 35.534s15.94 35.534 35.534 35.534C76.059 81.534 92 65.594 92 46c0-19.593-15.94-35.534-35.534-35.534zm0 65.677c-16.621 0-30.144-13.522-30.144-30.143 0-16.621 13.523-30.143 30.144-30.143S86.609 29.379 86.609 46c0 16.621-13.522 30.144-30.143 30.144z"/><path d="M58.206 47.34V29.927h-5.39V50.19l13.891 9.467 3.036-4.455-11.536-7.862z"/></g></svg>