<svg width="20" height="19" fill="none" xmlns="http://www.w3.org/2000/svg"><g clip-path="url(#clip0)" fill="#fff"><path d="M11.189 18.64zm.188-.032l-.112.02.112-.02zm-.633.094zm.18-.022zm.708-.122l-.1.02.1-.02zm.634-.158l-.08.022.08-.022zm-.192.053l-.087.022.087-.022zm-.251.062c-.03.008-.061.014-.092.021l.092-.02zm-1.358.215zm8.593-9.349a9.382 9.382 0 10-9.382 9.381c.055 0 .11 0 .165-.002v-7.303H7.826V9.11H9.84V7.38c0-2.005 1.224-3.096 3.012-3.096.856 0 1.592.064 1.807.093v2.095h-1.233c-.973 0-1.161.462-1.161 1.14V9.11h2.326l-.303 2.348h-2.023V18.4c3.92-1.124 6.792-4.737 6.792-9.019zm-8.762 9.361zm-.299.014z"/></g><defs><clipPath id="clip0"><path fill="#fff" transform="translate(.295)" d="M0 0h18.762v18.762H0z"/></clipPath></defs></svg>