<svg width="92" height="92" fill="none" xmlns="http://www.w3.org/2000/svg"><g opacity=".51" clip-path="url(#clip0)"><path d="M30.235 15.652a3.38 3.38 0 00-2.722-.774c-8.05 1.246-14.12 8.319-14.12 16.452 0 4.419 1.74 8.591 4.897 11.75 3.157 3.157 7.33 4.896 11.749 4.896 8.133 0 15.205-6.07 16.452-14.12a3.381 3.381 0 00-.774-2.722 3.358 3.358 0 00-2.552-1.174h-11.13a.627.627 0 01-.626-.627v-11.13c0-.982-.428-1.912-1.174-2.551zm1.8 17.048h11.13c.248 0 .402.136.472.217a.638.638 0 01.146.52c-1.042 6.726-6.95 11.799-13.744 11.799-7.668 0-13.906-6.238-13.906-13.906 0-6.794 5.073-12.703 11.8-13.744a.637.637 0 01.52.146c.08.07.216.223.216.472v11.13a3.37 3.37 0 003.366 3.366z" fill="#fff" fill-opacity=".48"/><path d="M30.365 15.5h0a3.557 3.557 0 011.244 2.704v11.13c0 .234.191.426.426.426h11.13a3.56 3.56 0 012.704 1.243c.681.796.98 1.846.82 2.883-1.262 8.147-8.418 14.29-16.65 14.29-4.473 0-8.696-1.76-11.89-4.956-3.195-3.194-4.956-7.418-4.956-11.89 0-8.232 6.142-15.388 14.29-16.65l2.882.82zm0 0a3.58 3.58 0 00-2.883-.82l2.883.82zm13.22 17.906h0c-1.026 6.63-6.851 11.63-13.546 11.63-7.557 0-13.706-6.149-13.706-13.706 0-6.695 5-12.52 11.63-13.546h0a.437.437 0 01.359.1.414.414 0 01.147.32v11.13a3.57 3.57 0 003.566 3.566h11.13c.168 0 .27.09.32.147.05.059.128.18.1.359z" stroke="#fff" stroke-opacity=".48" stroke-width=".4"/><path d="M83.367 75.194a1.37 1.37 0 001.37-1.37V10.789c0-3.8-3.09-6.89-6.889-6.89h-2.745A6.901 6.901 0 0068.895 0H14.153a6.898 6.898 0 00-6.89 6.89v25.741a1.37 1.37 0 102.74 0V6.891a4.155 4.155 0 014.15-4.15h54.742a4.156 4.156 0 014.152 4.15v61.168H62.381a3.86 3.86 0 00-3.856 3.856v11.072H14.153a4.154 4.154 0 01-4.15-4.149V38.842a1.37 1.37 0 00-2.74 0v39.996a6.897 6.897 0 006.89 6.889h2.088c.314 3.511 3.27 6.273 6.861 6.273h54.746c3.798 0 6.889-3.091 6.889-6.89v-4.892a1.37 1.37 0 00-2.74 0v4.891a4.154 4.154 0 01-4.15 4.15H23.104a4.157 4.157 0 01-4.105-3.532h40.898c.357 0 .713-.138.982-.414L75.4 70.385c.245-.253.387-.604.387-.956V6.639h2.061a4.154 4.154 0 014.149 4.15v63.035c0 .757.613 1.37 1.37 1.37zM62.38 70.799h8.793l-9.91 10.186v-9.07c0-.615.502-1.116 1.117-1.116z" fill="#fff" fill-opacity=".48"/><path d="M83.367 75.394a1.57 1.57 0 001.57-1.57V10.789c0-3.91-3.18-7.09-7.089-7.09h-2.62A7.1 7.1 0 0068.894-.2H14.153c-3.91 0-7.09 3.18-7.09 7.09v25.741a1.57 1.57 0 003.14 0V6.891a3.955 3.955 0 013.95-3.95h54.742a3.956 3.956 0 013.952 3.95v60.968H62.381a4.06 4.06 0 00-4.056 4.056v10.872H14.153a3.954 3.954 0 01-3.95-3.949V38.842a1.57 1.57 0 10-3.14 0v39.996c0 3.91 3.18 7.089 7.09 7.089h1.908c.406 3.526 3.408 6.273 7.041 6.273h54.746c3.909 0 7.088-3.18 7.088-7.09v-4.892a1.57 1.57 0 00-3.14 0v4.891a3.954 3.954 0 01-3.948 3.95H23.103a3.957 3.957 0 01-3.865-3.132h40.658c.408 0 .817-.158 1.125-.475 0 0 0 0 0 0l14.522-14.928-.144-.14.144.14c.282-.29.444-.69.444-1.095V6.839h1.861a3.954 3.954 0 013.949 3.95v63.035c0 .867.703 1.57 1.57 1.57zM62.38 70.999h8.32l-9.236 9.494v-8.578c0-.505.411-.916.916-.916z" stroke="#fff" stroke-opacity=".48" stroke-width=".4"/><path d="M61.684 63.842a1.37 1.37 0 00-1.37-1.37H18a1.37 1.37 0 100 2.74h42.313a1.37 1.37 0 001.37-1.37z" fill="#fff" fill-opacity=".48"/><path d="M61.884 63.842a1.57 1.57 0 00-1.57-1.57H18a1.57 1.57 0 100 3.14h42.313a1.57 1.57 0 001.57-1.57z" stroke="#fff" stroke-opacity=".48" stroke-width=".4"/><path d="M17.583 69.364a1.37 1.37 0 000 2.74h30.05a1.37 1.37 0 000-2.74h-30.05z" fill="#fff" fill-opacity=".48"/><path d="M17.583 69.164a1.57 1.57 0 000 3.14h30.05a1.57 1.57 0 100-3.14h-30.05z" stroke="#fff" stroke-opacity=".48" stroke-width=".4"/><path d="M16.63 56.95c0 .756.614 1.37 1.37 1.37h42.314a1.37 1.37 0 000-2.74H18a1.37 1.37 0 00-1.37 1.37z" fill="#fff" fill-opacity=".48"/><path d="M16.43 56.95c0 .866.704 1.57 1.57 1.57h42.314a1.57 1.57 0 100-3.14H18a1.57 1.57 0 00-1.57 1.57z" stroke="#fff" stroke-opacity=".48" stroke-width=".4"/><path d="M38.042 9.469a3.377 3.377 0 00-2.71.78 3.36 3.36 0 00-1.17 2.548v11.338a3.37 3.37 0 003.367 3.367h13.484a1.37 1.37 0 001.37-1.37 16.97 16.97 0 00-4.935-11.916 16.97 16.97 0 00-9.406-4.747zm-.513 15.293a.626.626 0 01-.627-.627V12.797c.053-.464.296-.635.732-.619a14.21 14.21 0 017.876 3.976 14.223 14.223 0 014.027 8.269.304.304 0 01-.303.339H37.53z" fill="#fff" fill-opacity=".48"/><path d="M47.59 14.075l-.142.141.141-.141a17.17 17.17 0 00-9.517-4.804 3.577 3.577 0 00-2.87.826 3.56 3.56 0 00-1.24 2.7v11.338a3.57 3.57 0 003.567 3.567h13.484a1.57 1.57 0 001.57-1.57c0-4.49-1.82-8.883-4.994-12.057zM37.528 24.56h-.013a.426.426 0 01-.413-.426V12.81c.023-.196.082-.293.147-.346.068-.055.178-.09.365-.085a14.01 14.01 0 017.754 3.917 14.023 14.023 0 013.97 8.152.104.104 0 01-.105.114H37.53z" stroke="#fff" stroke-opacity=".48" stroke-width=".4"/><path d="M56.22 40.76v4.012a3.762 3.762 0 002.885 3.652v2.569a1.37 1.37 0 002.74 0v-2.569a3.762 3.762 0 002.887-3.652V17.065a2.906 2.906 0 013.096 2.902v7.64a1.37 1.37 0 002.74 0v-7.64a5.62 5.62 0 00-1.654-3.995 5.61 5.61 0 00-4.182-1.65v-2.127a3.763 3.763 0 00-3.758-3.758h-.995a3.763 3.763 0 00-3.759 3.758V40.76zm5.772-1.37H58.96V27.699h3.032v11.69zm-1.018 6.4h-.995a1.02 1.02 0 01-1.019-1.018V42.13h3.032v2.642a1.02 1.02 0 01-1.018 1.018zm-.995-34.613h.995a1.02 1.02 0 011.018 1.018V24.96H58.96V12.195a1.02 1.02 0 011.019-1.018z" fill="#fff" fill-opacity=".48"/><path d="M69.055 15.83h0a5.81 5.81 0 00-4.123-1.712v-1.923a3.963 3.963 0 00-3.958-3.958h-.995a3.963 3.963 0 00-3.959 3.958v32.577a3.962 3.962 0 002.885 3.806v2.415a1.57 1.57 0 003.14 0v-2.414a3.962 3.962 0 002.887-3.807V17.259a2.703 2.703 0 012.696 2.709v7.64a1.57 1.57 0 103.14 0v-7.64a5.82 5.82 0 00-1.713-4.137zM56.02 26.31h0zm0 .038c0 .002 0 0 0 0h0zm0 14.392h0zm0 .04s0 0 0 0h0zm3.14 3.992V42.33h2.632v2.442a.82.82 0 01-.818.818h-.995a.82.82 0 01-.819-.818zm2.632-32.577V24.76H59.16V12.195v0a.82.82 0 01.819-.818h.995a.82.82 0 01.818.818zm0 26.995H59.16V27.899h2.632v11.29z" stroke="#fff" stroke-opacity=".48" stroke-width=".4"/></g><defs><clipPath id="clip0"><path fill="#fff" d="M0 0h92v92H0z"/></clipPath></defs></svg>