<svg width="92" height="92" fill="none" xmlns="http://www.w3.org/2000/svg"><g opacity=".51" clip-path="url(#clip0)" fill="#fff" fill-opacity=".48"><path d="M76.965 57.372a36.832 36.832 0 006.086-20.32C83.05 16.621 66.429 0 45.999 0S8.947 16.621 8.947 37.051a36.837 36.837 0 006.085 20.32L.539 78.509l16.584-3.092L20.215 92l13.668-19.933a36.888 36.888 0 0012.116 2.036c4.241 0 8.317-.718 12.115-2.036L71.782 92l3.092-16.584 16.584 3.092-14.493-21.136zM23.146 78.137l-1.687-9.046-9.045 1.688 6.104-8.903a37.296 37.296 0 0010.298 7.994l-5.67 8.267zm-8.777-41.086c0-17.44 14.19-31.629 31.63-31.629 17.44 0 31.63 14.19 31.63 31.63 0 17.44-14.19 31.63-31.63 31.63-17.44 0-31.63-14.19-31.63-31.63zm56.169 32.04l-1.687 9.046-5.67-8.267a37.296 37.296 0 0010.3-7.994l6.103 8.902-9.046-1.687z"/><path d="M39.394 45.188l-8.816-8.815-3.834 3.834 12.65 12.65 25.86-25.86-3.834-3.834-22.026 22.025z"/></g><defs><clipPath id="clip0"><path fill="#fff" d="M0 0h92v92H0z"/></clipPath></defs></svg>