<svg width="20" height="19" fill="none" xmlns="http://www.w3.org/2000/svg"><g clip-path="url(#clip0)" fill="#fff"><path d="M11.767 9.381a1.796 1.796 0 11-3.592 0 1.796 1.796 0 013.592 0z"/><path d="M14.17 6.204a1.668 1.668 0 00-.403-.62 1.667 1.667 0 00-.619-.402c-.19-.074-.475-.162-1-.185-.568-.026-.739-.032-2.177-.032-1.438 0-1.609.006-2.177.031-.525.024-.81.112-1 .186a1.667 1.667 0 00-.62.403 1.67 1.67 0 00-.402.62c-.074.19-.162.474-.186 1-.026.568-.031.738-.031 2.176 0 1.439.005 1.61.031 2.177.024.526.112.81.186 1 .086.235.224.446.403.62.173.179.385.316.619.403.19.074.475.161 1 .185.568.026.738.032 2.177.032 1.438 0 1.609-.006 2.177-.032.525-.024.81-.111 1-.185.47-.181.841-.553 1.022-1.023.074-.19.162-.474.186-1 .026-.568.031-.738.031-2.177 0-1.438-.005-1.608-.031-2.176-.024-.526-.112-.81-.186-1zm-4.199 5.943a2.766 2.766 0 110-5.532 2.766 2.766 0 010 5.532zm2.876-4.995a.647.647 0 110-1.293.647.647 0 010 1.293z"/><path d="M9.971 0a9.382 9.382 0 100 18.763A9.382 9.382 0 009.971 0zm5.354 11.602c-.025.574-.117.965-.25 1.308a2.755 2.755 0 01-1.575 1.575c-.343.133-.735.225-1.308.25-.574.027-.758.033-2.22.033-1.464 0-1.647-.006-2.222-.032-.573-.027-.965-.118-1.307-.25a2.64 2.64 0 01-.955-.622 2.64 2.64 0 01-.62-.954c-.134-.343-.225-.734-.251-1.308-.027-.574-.033-.758-.033-2.22 0-1.464.006-1.647.033-2.222.026-.573.117-.965.25-1.307a2.63 2.63 0 01.621-.954c.27-.274.595-.487.955-.622.342-.133.734-.224 1.307-.25.575-.026.758-.033 2.221-.033s1.647.007 2.221.033c.573.026.965.117 1.308.25.36.135.685.348.954.622.274.269.486.594.621.954.133.342.225.734.25 1.307.027.575.033.758.033 2.221s-.006 1.647-.033 2.221z"/></g><defs><clipPath id="clip0"><path fill="#fff" transform="translate(.59)" d="M0 0h18.762v18.762H0z"/></clipPath></defs></svg>