<svg width="19" height="19" fill="none" xmlns="http://www.w3.org/2000/svg"><path d="M9.381 0a9.382 9.382 0 100 18.763A9.382 9.382 0 009.381 0zM6.655 14.182H4.37V7.308h2.285v6.874zM5.513 6.369h-.015c-.767 0-1.263-.527-1.263-1.187 0-.674.511-1.188 1.293-1.188.782 0 1.263.514 1.277 1.188 0 .66-.495 1.187-1.292 1.187zm9.38 7.813H12.61v-3.678c0-.924-.33-1.554-1.157-1.554-.632 0-1.007.425-1.173.836-.06.147-.075.352-.075.557v3.839H7.92s.03-6.229 0-6.874h2.284v.973c.304-.468.847-1.134 2.06-1.134 1.502 0 2.63.982 2.63 3.093v3.942z" fill="#fff"/></svg>