<svg width="71" height="19" fill="none" xmlns="http://www.w3.org/2000/svg"><path d="M4.616 13.848H10.4V18H.32V1.2h4.296v12.648zm22.589 1.992c-1.696 1.68-3.776 2.52-6.24 2.52-2.464 0-4.552-.84-6.264-2.52-1.696-1.696-2.544-3.776-2.544-6.24 0-2.464.848-4.536 2.544-6.216C16.413 1.688 18.5.84 20.965.84c2.464 0 4.544.848 6.24 2.544 1.712 1.68 2.568 3.752 2.568 6.216 0 2.464-.856 4.544-2.568 6.24zm-9.48-2.952c.864.848 1.944 1.272 3.24 1.272 1.296 0 2.376-.424 3.24-1.272.864-.864 1.296-1.96 1.296-3.288 0-1.328-.432-2.416-1.296-3.264-.864-.864-1.944-1.296-3.24-1.296-1.296 0-2.376.432-3.24 1.296-.864.848-1.296 1.936-1.296 3.264 0 1.328.432 2.424 1.296 3.288zm32.4-4.512v1.704c0 2.464-.775 4.464-2.327 6-1.536 1.52-3.536 2.28-6 2.28-2.624 0-4.784-.84-6.48-2.52-1.68-1.68-2.52-3.752-2.52-6.216 0-2.464.84-4.544 2.52-6.24 1.68-1.696 3.76-2.544 6.24-2.544 1.568 0 3 .352 4.296 1.056 1.312.704 2.336 1.64 3.072 2.808l-3.648 2.088c-.336-.528-.832-.952-1.488-1.272-.64-.32-1.368-.48-2.184-.48-1.328 0-2.416.432-3.264 1.296-.848.864-1.272 1.968-1.272 3.312 0 1.296.416 2.392 1.248 3.288.848.896 2.032 1.344 3.552 1.344 1.952 0 3.24-.736 3.864-2.208h-4.08V8.376h8.472zm18.08 7.464c-1.696 1.68-3.776 2.52-6.24 2.52-2.464 0-4.552-.84-6.264-2.52-1.696-1.696-2.544-3.776-2.544-6.24 0-2.464.848-4.536 2.544-6.216C57.413 1.688 59.501.84 61.965.84c2.464 0 4.544.848 6.24 2.544 1.712 1.68 2.568 3.752 2.568 6.216 0 2.464-.856 4.544-2.568 6.24zm-9.48-2.952c.864.848 1.944 1.272 3.24 1.272 1.296 0 2.376-.424 3.24-1.272.864-.864 1.296-1.96 1.296-3.288 0-1.328-.432-2.416-1.296-3.264-.864-.864-1.944-1.296-3.24-1.296-1.296 0-2.376.432-3.24 1.296-.864.848-1.296 1.936-1.296 3.264 0 1.328.432 2.424 1.296 3.288z" fill="#F90"/></svg>