<svg width="92" height="92" fill="none" xmlns="http://www.w3.org/2000/svg"><g opacity=".51" fill="#fff" fill-opacity=".48"><path d="M49.099 57.744h-5.26a3.461 3.461 0 110-6.924h9.257a2.302 2.302 0 002.295-2.295 2.302 2.302 0 00-2.295-2.295h-4.342v-3.195a2.302 2.302 0 00-2.295-2.295 2.302 2.302 0 00-2.295 2.295v3.195h-.325c-4.438 0-8.053 3.614-8.053 8.052 0 4.437 3.615 8.052 8.053 8.052h5.26a3.461 3.461 0 110 6.924h-9.43a2.302 2.302 0 00-2.295 2.295 2.302 2.302 0 002.295 2.296h4.514v3.27a2.302 2.302 0 002.295 2.296 2.302 2.302 0 002.295-2.296v-3.27h.44c4.4-.058 7.938-3.654 7.938-8.053 0-4.437-3.615-8.052-8.052-8.052z"/><path d="M80.964 52.541c-2.41-5.546-5.738-10.921-9.946-15.951-5.088-6.121-10.157-10.214-12.739-12.108l9.755-18.094c.478-.899.325-2.008-.42-2.716C65.087 1.205 62.41 0 59.426 0c-2.735 0-5.24 1.033-7.421 1.95-1.722.709-3.348 1.397-4.667 1.397a2.9 2.9 0 01-1.09-.191C41.696 1.492 38.195.459 34.81.459c-4.285 0-7.938 1.721-11.515 5.394a2.31 2.31 0 00-.267 2.869l10.52 15.894c-2.602 1.932-7.575 5.987-12.567 11.974-4.189 5.03-7.536 10.405-9.946 15.951-3.022 6.982-4.552 14.269-4.552 21.652C6.484 84.005 14.479 92 24.29 92h43.418c9.812 0 17.807-7.995 17.807-17.807 0-7.383-1.53-14.67-4.552-21.652zM27.925 7.765c2.219-1.912 4.342-2.754 6.886-2.754 2.716 0 5.776.918 9.85 2.43.842.305 1.74.458 2.659.458 2.237 0 4.38-.88 6.426-1.74 1.97-.823 3.845-1.607 5.662-1.607.88 0 2.123.153 3.691 1.263l-9.18 17.06h-15.99L27.924 7.766zM67.71 87.41H24.29c-7.287 0-13.217-5.93-13.217-13.217 0-12.26 4.495-23.89 13.332-34.562 5.585-6.752 11.265-10.94 12.987-12.165h17.176c1.74 1.205 7.402 5.413 12.987 12.165 8.856 10.672 13.331 22.282 13.331 34.562.038 7.287-5.89 13.217-13.178 13.217z"/></g></svg>