<svg width="94" height="76" fill="none" xmlns="http://www.w3.org/2000/svg"><path d="M19.7 0c7.8 0 13.7 3.2 17.7 9.6 3.4 5.4 5.1 12 5.1 19.8 0 10-2.5 19-7.5 27-5.2 8-13 14.4-23.4 19.2l-2.7-5.4c6.2-2.6 11.6-6.7 16.2-12.3 4.4-5.6 6.6-11.3 6.6-17.1 0-2.4-.3-4.5-.9-6.3-3.2 2.6-6.9 3.9-11.1 3.9-5.4 0-9.9-1.8-13.5-5.4C2.4 29.6.5 25 .5 19.2c0-5.4 1.9-10 5.7-13.8C9.8 1.8 14.3 0 19.7 0zm51 0c7.8 0 13.7 3.2 17.7 9.6 3.4 5.4 5.1 12 5.1 19.8 0 10-2.5 19-7.5 27-5.2 8-13 14.4-23.4 19.2l-2.7-5.4c6.2-2.6 11.6-6.7 16.2-12.3 4.4-5.6 6.6-11.3 6.6-17.1 0-2.4-.3-4.5-.9-6.3-3.2 2.6-6.9 3.9-11.1 3.9-5.4 0-9.9-1.8-13.5-5.4-3.8-3.4-5.7-8-5.7-13.8 0-5.4 1.9-10 5.7-13.8C60.8 1.8 65.3 0 70.7 0z" fill="#fff" fill-opacity=".12"/></svg>