<svg id="SvgjsSvg1001" width="288" height="288" xmlns="http://www.w3.org/2000/svg" version="1.1" xmlns:xlink="http://www.w3.org/1999/xlink" xmlns:svgjs="http://svgjs.com/svgjs"><svg xmlns="http://www.w3.org/2000/svg" viewBox="0 0 48 48" width="288" height="288" id="SvgjsG1008" transform="translate(11.995 11.995) scale(.9167)"><path d="M40 15.5c4.1 0 7.5-3.4 7.5-7.5S44.1.5 40 .5 32.5 3.9 32.5 8c0 .8.1 1.7.4 2.4l-18.7 9.4c-1.4-2-3.6-3.3-6.2-3.3C3.9 16.5.5 19.9.5 24s3.4 7.5 7.5 7.5c2.6 0 4.8-1.3 6.2-3.3l18.7 9.4c-.3.8-.4 1.6-.4 2.4 0 4.1 3.4 7.5 7.5 7.5s7.5-3.4 7.5-7.5-3.4-7.5-7.5-7.5c-2.6 0-4.8 1.3-6.2 3.3l-18.7-9.4c.3-.8.4-1.6.4-2.4 0-.8-.1-1.7-.4-2.4l18.7-9.4c1.4 2 3.6 3.3 6.2 3.3zm0 19c3 0 5.5 2.5 5.5 5.5S43 45.5 40 45.5 34.5 43 34.5 40s2.5-5.5 5.5-5.5zm-32-5c-3 0-5.5-2.5-5.5-5.5S5 18.5 8 18.5s5.5 2.5 5.5 5.5S11 29.5 8 29.5zm32-27c3 0 5.5 2.5 5.5 5.5S43 13.5 40 13.5 34.5 11 34.5 8 37 2.5 40 2.5z" fill="#fff" class="color000 svgShape"/></svg></svg>